<svg width="68" height="68" viewBox="0 0 68 68" xmlns="http://www.w3.org/2000/svg">
    <path fill="#f03" d="M7.45,56.38c-2.93-.79-5.22-3.13-6.06-6.01-1.39-5.31-1.39-16.39-1.39-16.39,0,0,0-11.08,1.39-16.34.84-2.93,3.13-5.22,6.06-6.01,5.27-1.44,26.52-1.44,26.52-1.44,0,0,21.31,0,26.57,1.44,2.98.79,5.22,3.08,6.01,6.01,1.44,5.27,1.44,16.34,1.44,16.34,0,0,0,11.08-1.44,16.39-.79,2.88-3.03,5.22-6.01,6.01-5.27,1.44-26.57,1.44-26.57,1.44,0,0-21.26,0-26.52-1.44ZM27.22,44.21l17.63-10.23-17.63-10.18v20.41Z" />
    <polygon fill="#fff" points="27.22 44.21 44.85 33.98 27.22 23.79 27.22 44.21" />
</svg>
