<svg width="2090" height="1460" viewBox="0 0 2090 1460" xmlns="http://www.w3.org/2000/svg">
    <rect width="2090" height="1460" fill="#f0f1f0" y="0" />
    <path fill="#eaeaea" d="M2090,794.04v349.15c-20.94,15.63-48.26,22.73-83.68,17.25-211.32-32.68-328.82,13.08-430.98,14.93-71.59,1.3-131.36-12.35-213.01-32.09-4.53-1.1-9.13-2.21-13.8-3.34-31.26-7.58-65.8-15.93-105.34-24.59-75.1-16.46-134.89-16.03-183.35-7.17-4.06.74-8.04,1.54-11.94,2.4-43.76,9.58-77.82,25.98-105.48,42.19-59.59,34.91-84.03,92.81-120.16,157.92-24.49,44.14-61.11,103.37-102.9,149.31h-82.1c88.02-84.72,116.72-208.01,252.22-309.11,52.2-38.95,107.31-58.79,165.16-67.17,3.9-.57,7.81-1.08,11.73-1.55,88.92-10.5,184.2,4.5,285.25,17.73,4.64.61,9.29,1.21,13.96,1.81,60.61,7.77,123.26,14.45,187.82,14.26,130.12-.38,190.27-134.08,293.55-202.46,93.11-61.66,187.27-99.9,243.05-119.47Z" />
    <path fill="#fff" stroke="#e5e5e5" stroke-miterlimit="10" d="M1470.67,723.68c6.36,1,12.78,1.45,19.27,1.45,22.57,0,45.96-5.35,70.42-10.94,68.39-15.63,136.15-32.32,168.59-48.46,40.06-19.91,51.49-27.69,54.72-30.59,31.1-21.42,192.11-190.96,306.33-312.76v-18.78c-76.37,81.07-165.35,175.51-165.35,175.51l-113.51-98.26-6.54,7.56,113.26,98.05c-67.58,70.25-125.13,128.15-141.28,138.99l-.61-.02-.6,1.05c-1.54,1.26-10.82,8.16-51.76,28.51-20.53,10.21-56.38,20.8-97.71,31.25l-14.15-47.63-.25-.7c-.3-.67-7.46-16.52-28.99-20.44-18.1-3.29-49.44-7.41-51.32-7.66l-262.5-41.74,3.35-47.6c17.09-2.84,58.98-11.72,64.49-31.26,5.24-18.54,14.41-73.98,17.46-92.79l65.39,24.3,2.79-7.49-125.52-46.66c1.34-6.48,2.58-12.41,3.65-17.45l.75-3.53c2.55-12.13,5.15-24.54,10.29-36.29l80.03,24.53,2.34-7.64-78.8-24.17c1.76-3.19,3.76-6.31,6.04-9.34,13.93-18.49,36.95-30.9,70.37-37.97,79.62-16.82,180.4-54.04,181.41-54.41l.2-.08C1627.89,177.02,1762.42,69.32,1846.11,0h-15.82c-83.71,68.98-209.87,169.26-261.14,190.96-3.73,1.38-102.12,37.54-179.9,53.97-80.87,17.09-90.36,62.29-97.99,98.61l-.74,3.5c-6.76,31.87-20.28,99.18-23.93,117.41l-60.23-8.49c-11.16-1.57-21.74,5.84-24.09,16.86l-16.79,78.84-83.07-13.21c4.23-18.55,6.22-23.64,7.02-24.99,17.14-25.61,45.67-40.73,68.59-52.88,8.78-4.65,17.07-9.04,23.8-13.53,25.21-16.81,46.3-57.34,102.67-165.66l3.09-5.95c47.34-90.96,71.16-101.37,74.32-102.39l.11.02,1.18-.16c21.76-2.79,47.73-19.4,79.38-50.78,24.16-23.95,51.41-56.43,81-96.55,6.33-8.58,12.5-17.15,18.45-25.58h-22.1c-3.58,4.98-7.22,9.99-10.92,15-29.03,39.35-55.65,71.11-79.14,94.38-34.65,34.35-56.19,43.81-68.31,45.59-4.51.06-12.79,2.49-25.39,14.69-18.49,17.91-40.21,50.71-64.54,97.47l-3.1,5.95c-53.27,102.38-75.32,144.75-96.69,159-5.97,3.98-13.87,8.17-22.24,12.6-1.57.83-3.16,1.68-4.78,2.53h-.01l-145.48-19.38-.15-.02c-.11-.01-9.39-1.01-22.93-5.78.77-2.73,1.19-5.62,1.19-8.6,0-11.57-6.28-21.69-15.62-27.14.81-2.69,1.65-5.53,2.52-8.49.84-2.83,1.72-5.84,2.7-9.08,3.94-13.16,6.91-19.32,13.41-32.8,4.36-9.02,10.32-21.38,19.12-41.15,9.26-20.81,17.09-52.91,23.27-95.42,4.57-31.5,6.49-57.33,6.51-57.59v-.12S1032.84,0,1032.84,0h-10l-3.48,141.15c-.3,3.99-7.99,102.49-28.94,149.56-8.73,19.62-14.66,31.9-18.98,40.87-6.54,13.54-9.82,20.34-13.99,34.26-.98,3.26-1.87,6.28-2.71,9.13-.82,2.78-1.57,5.32-2.29,7.71-2.07-.43-4.23-.66-6.43-.66-8.6,0-16.41,3.48-22.09,9.1-6.34-5.01-13.83-10.96-22.13-17.55-44.3-35.2-111.25-88.4-144.34-110.2-42.42-27.94-109.91-53-112.77-54.05l-.15-.06c-1.18-.39-119.1-39.73-156.2-50.12-22.53-6.31-24.28-9.05-34.01-24.26-5.5-8.6-13.04-20.38-27.39-37.99L356.89,0h-12.34l74.37,102.87.17.23c14.06,17.22,21.43,28.75,26.82,37.17,10.95,17.12,14.5,21.43,39.73,28.5,8.84,2.48,22.32,6.61,37.72,11.48l-23.02,70.69,9.51,3.1,23.04-70.77c47.02,14.98,105.84,34.59,108.41,35.45.27.1,1.27.47,2.88,1.09-6.08,14.21-21.61,50.33-27.52,62.45-4.5,9.23-2.64,23.64-.68,38.89,1.78,13.79,3.62,28.05,1.06,38.97-5.62,23.97-29.9,168.11-30.93,174.24l9.86,1.66c.11-.63,4.63-27.46,10.23-60.03l45.21,8.38c1.38.3,5.96,1.22,10.62,1.22,2.55,0,5.13-.27,7.23-1.08,7.2-2.77,8.57-12.47,8.81-14.94,14.18-84.31,21.41-128.08,21.5-130.11.23-2.59,3.46-19.62,8.49-38.67,3.75-14.19,10.88-35.43,14.53-46.09,10.41,5.44,20.5,11.19,29.36,17.02,11.65,7.67,27.61,19.34,45.33,32.76-6.69,10.99-24.3,40.82-31.77,62.29-9.08,26.11-37.42,214.26-38.62,222.26l-.66,4.44,4.33,1.14c.32.08,31.62,8.31,64.59,14.48,4.64.87,9.02,1.64,13.14,2.33-5.47,22.34-15.3,62.15-19.81,78.68-26.94-5.24-169.07-32.84-189.86-35.95-22.94-3.45-270.81-1.31-281.35-1.22h-.17c-75.84,2.29-219.14,10.27-317.1,16v16.03c97.85-5.73,241.56-13.74,317.5-16.03,71.52-.63,260.74-1.66,278.75,1.04,19.95,2.99,159.33,30.03,188.15,35.64-3.28,29.81,30.78,58.96,40.35,66.51-1.79,13.19-9.51,69.42-18.05,120.74l-213.89-41.78c-8.88-1.74-16.22-7.85-19.63-16.35-1.35-3.34-2.77-6.21-4.24-8.51-9.29-14.6-23.69-23-42.82-24.98-22.51-2.33-183.43-12.86-190.27-13.31L0,773.75v10.01l335.26,14.15c3.91.26,167.66,10.99,189.84,13.28,15.93,1.65,27.84,8.51,35.4,20.39,1.14,1.79,2.29,4.11,3.4,6.87,4.68,11.67,14.77,20.06,26.99,22.44l91.54,17.89-28.2,178.72c-2.63-.35-5.32-.73-8.05-1.14-12.29-1.84-30.11-4.46-50.26-7.39,1.38-11.31,2.24-19.79,2.24-23.24,0-1.67,0-3.21.03-4.65.1-12.63.16-19.59-9.83-30.83-1.44-1.62-4.07-4.96-7.4-9.19-25-31.76-53.45-65.72-74.65-66.73-23.26-1.11-39.07.94-40.81,1.18L0,966.02v15.09l467.24-50.7.24-.03c.15-.03,15.5-2.14,38.12-1.07,16.14.77,51.84,46.12,63.58,61.03,3.62,4.6,6.24,7.92,7.97,9.87,6.15,6.93,6.13,9.04,6.04,20.75-.02,1.47-.03,3.05-.03,4.77,0,2.91-.79,10.56-2.07,21.07-64.66-9.4-143.9-20.78-145.01-20.94l-1.42,9.9c1.11.16,80.51,11.56,145.18,20.96-4.43,34.32-12.17,87.41-16.31,115.12-27.97,13.7-61.4,31.64-99.59,53.46-72.27,41.27-138.38,83.21-143.25,86.3-49.78,26.85-189.58,96.19-295.59,148.4h40.7c100.73-49.71,218.96-108.54,263.73-132.71l.56-.33c.67-.43,68.49-43.6,142.83-86.06,128.93-73.64,170.64-84.4,184.1-84.2l107.23,4.66,2.66-2.18c12.33-10.12,34.96-26.71,61.17-45.92,73.49-53.89,136.97-101.44,162.04-130.75l87.36,10.19-22.84,91.02-6.74,26.86-87.67,349.42h11.34l88.27-351.82,6.53-26.01,23.06-91.92h0c3.35-3.39,11.84-11.59,23.41-20.11,13.66-10.08,34.55-22.69,56.48-25.58,20.39-2.68,38.12-.03,38.29-.01l5.32.82,6.36-78.21,82.28,14.25c2.76,4.22,41.1,63.31,49.91,105.94,4.64,22.5,2.95,70.54.13,112.55-.96,14.5-2.06,28.28-3.09,40.04-1.84,21.28-3.42,35.98-3.47,36.44v.11s-21.71,283.51-21.71,283.51h14.05l21.59-282.22c.23-2.16,1.67-15.51,3.34-34.5,1.07-12.06,2.23-26.39,3.25-41.57,1.14-17.02,2.1-35.1,2.54-52.25,4.04-3.23,9.37-7.7,13.33-11.78,13.44-13.86,17.08-30.44,18.04-39.64l41.22,13.25,3.06-9.52-47.45-15.26c-9.12-2.9-23.71-4.45-31.81-5.13-3-12.93-8.21-26.86-14.19-40.28,6.23-2.45,18.1-6.23,35.49-8.16,18.47-2.06,55.47,4.48,75.87,8.56,6.48,1.29,13.04-.05,18.48-3.78,5.44-3.73,9.06-9.36,10.19-15.86l10.23-58.82-180.03-34.44,11.48-68.07c46.97,9.27,208.3,40.71,233.35,40.71.82,0,1.5-.03,2.02-.1,74.93-10,238.87-58.61,316.28-98.99l206.32-112.39v-15.94l-212.85,115.94c-76.28,39.78-237.76,87.65-311.6,97.5-11.89,1.38-145.57-23.66-231.19-40.54l7.54-44.72c57.09,9.81,105.29,17.97,128.77,21.68ZM1275.53,470.74v-.02c.93-4.62,11.45-57.2,19.49-96.22l51.32,19.08c-2.73,16.86-12.31,75.02-17.51,93.46-3.43,12.16-33.51,21.25-56.22,25.23l2.92-41.53ZM698.39,298.24c-4.99,18.89-8.55,37.04-8.81,40.81-.43,3.87-13.03,79.22-21.4,129.05l-.05.4c-.28,3.06-1.62,6.36-2.46,6.68-2.37.91-8.67.18-12.18-.59l-45.59-8.45c7.34-42.54,15.91-91.06,18.88-103.74,2.97-12.68,1.01-27.85-.88-42.53-1.69-13.12-3.44-26.69-.25-33.22,6.13-12.57,21.84-49.12,27.85-63.2,13.71,5.46,37.01,15.15,60.09,26.66-3.52,10.22-11.15,32.81-15.2,48.13ZM1389.69,995.06c-.51,6.98-3.05,22.9-15.42,35.66-1.74,1.79-3.82,3.7-5.93,5.54.15-17.25-.38-32.91-1.96-44.68,6.71.63,16.18,1.74,23.31,3.48ZM1529.39,621.68l.16.02c.33.04,32.54,4.26,50.81,7.58,13.92,2.53,19.18,11.58,20.02,13.2l13.86,46.67c-18.27,4.5-37.4,8.96-56.59,13.35-30.3,6.92-58.91,13.47-85.11,9.33-23.44-3.7-71.6-11.86-128.65-21.67l16.1-95.42,169.4,26.94ZM1192.05,474.9c1.26-5.91,6.93-9.88,12.91-9.03l60.29,8.49-6.47,92.14-83.41-13.27,16.68-78.33ZM1172.95,565l84.56,13.45-15.86,94.05c-28.65-4.97-57.29-9.95-84.36-14.67l15.66-92.83ZM1163.07,563.43l-15.63,92.69c-31.71-5.53-60.92-10.64-85.01-14.85,3.37-18.8,6.63-36.55,9.66-52.45,3.05-16.02,5.61-28.66,7.73-38.63l83.25,13.24ZM1042.61,649.98c-4.42,24.8-9.35,52.94-14.86,84.61-4.59,26.36-9.35,53.66-14,79.83-14.84-1.39-27.05-.97-37.74.44l28.91-171.49c8.27,1.45,21.24,3.73,37.69,6.61ZM1006.92,631.54l15.26-90.51,39.83,6.33c-4.64,21.83-10.29,51.84-17.29,90.8-16.52-2.89-29.53-5.17-37.8-6.62ZM1045.48,737.67c4.95-28.44,9.99-57.4,14.83-84.59,24.12,4.22,53.37,9.33,85.13,14.86l-28.88,171.27-86.3-14.95c4.65-26.01,9.72-54.99,15.22-86.59ZM946.02,394.02c10.7,0,19.41,8.71,19.41,19.41s-8.71,19.41-19.41,19.41-19.41-8.71-19.41-19.41,8.71-19.41,19.41-19.41ZM929.11,442.7c.57-.6,1.14-1.19,1.71-1.79,4.51,2.5,9.69,3.93,15.2,3.93,10.76,0,20.28-5.44,25.94-13.72h0c14.68,5.29,24.93,6.51,26.1,6.63l131.98,17.58c-19.95,11.48-40.86,26.14-55.58,48.12-2.63,3.93-5.83,14.44-9.88,32.17l-163.09-25.93c.67-5.32,1.32-10.68,1.97-16.05,1.15-9.53,2.06-17.06,2.69-20.39,1.54-8.1,12.92-20.03,22.95-30.55ZM797.04,599.27c-25.45-4.76-49.91-10.77-59.58-13.22,4.44-29.26,29.47-192.91,37.5-216,6.88-19.77,23.46-48.11,30.33-59.48,30.19,23.08,64.18,50.08,90.29,70.82,8.43,6.71,16.04,12.75,22.44,17.81-2.18,4.28-3.41,9.11-3.41,14.23,0,8.19,3.15,15.66,8.31,21.26-.34.37-.69.73-1.04,1.1-11.53,12.09-23.46,24.6-25.54,35.59-.7,3.67-1.58,10.97-2.79,21.06-3.59,29.76-11.98,99.45-23.95,110.62-2.05,1.91-13.33,7.29-72.56-3.79ZM795.82,700.5c2.72-7.32,17.52-67.65,22.37-87.52,14.99,2.19,26.08,3.04,34.36,3.04,15.16,0,20.9-2.87,23.88-5.65,11.07-10.33,17.94-47.12,23.52-88.78l110.38,17.55-46.86,277.92c-7.99,1.72-15.26,3.89-22.44,6.04-11.57,3.45-22.49,6.71-36.5,8.23-33.89,3.66-68.51-5.53-76.89-7.97,4.21-28.83,7.11-50.47,7.41-52.78l.39-2.94-2.39-1.76c-.48-.35-48.2-35.81-37.23-65.38ZM692.24,880.69l112.8,22.04c-4.68,27.38-9.5,52.42-13.65,67.45-6.76,24.52-22.99,48.31-35.41,63.95-11.05,13.92-21.14,24.03-24.6,27.39-6.54.38-31.23,1.36-67.22-2.78l28.08-178.05ZM983.43,960.97c-11.19,24.27-108.1,95.32-166,137.77-24.64,18.07-46.15,33.84-59.25,44.34l-100.49-4.37h-.23c-15.02-.27-40.4,8.01-77.6,25.32,3.6-24.33,10.6-72.21,14.82-105.14,20.05,2.92,37.78,5.52,50.02,7.36,31.24,4.68,55.92,5.68,71.35,5.68,11.01,0,17.31-.51,17.91-.56l1.71-.15,1.27-1.18c2.05-1.9,50.32-47.27,64.09-97.2,7.23-26.22,16.26-80.7,23.19-126.54,10.79,2.97,35.78,8.89,63.69,8.89,6.26,0,12.67-.3,19.09-.99,16.1-1.74,28.56-5.47,40.61-9.06,17.63-5.27,34.39-10.28,62.07-8-11.09,61.49-21.12,112.69-26.25,123.83ZM1203.83,934.05c-7.14-.68-20.66-1.4-35.81.6-41.01,5.4-77.27,39.99-85.69,48.55l-85.2-9.94c1.08-1.68,1.96-3.26,2.65-4.76,5.93-12.89,15.5-60.75,28.72-134.38l86.4,14.96,9.85,1.7,84.66,14.66-5.58,68.61ZM1210.78,855.53l-84.36-14.61,28.88-171.26c27.06,4.72,55.7,9.7,84.35,14.67l-28.87,171.2ZM1487.89,871.81l-8.38,48.16c-.62,3.56-2.59,6.64-5.57,8.67-2.97,2.04-6.56,2.78-10.1,2.07-25.69-5.13-60.28-10.8-79.24-8.7-19.08,2.12-32.05,6.32-38.93,9.08-14.61-30.41-31.47-55.99-32.57-57.64l-.13.08,5.75-34.08,169.17,32.36ZM1303.17,871.53l-82.54-14.29,28.87-171.2c28.17,4.89,56.18,9.73,82.54,14.26l-28.87,171.23ZM1334.04,688.47c-26.36-4.54-54.37-9.38-82.54-14.26l15.88-94.19,82.73,13.15-16.07,95.3Z" />
</svg>
