<svg width="68" height="68" viewBox="0 0 68 68" xmlns="http://www.w3.org/2000/svg">
    <path fill="#ea4335" d="M27.02,17.89h0s-.07.09-.07.09l-14.33,17.03s-2.34-4.58-2.34-11.21c0-6.27,2.44-11.75,5.56-15.32l11.17,9.4h0Z" />
    <path fill="#1a73e8" d="M41.16,1.08l-14.14,16.79h-.01s-11.17-9.39-11.17-9.39C19.33,4.3,25.48,0,33.95,0c4.11,0,7.21,1.08,7.21,1.08Z" />
    <path fill="#4285f4" d="M41.12,29.36c.44-.59,1.94-2.78,1.94-5.7,0-5.16-4.34-9.02-9.04-9.02-4.16,0-6.67,2.85-6.97,3.2L41.16,1.08h0c5.85,1.88,10.86,5.83,13.88,11.67l-13.93,16.61Z" />
    <path fill="#fbbc04" d="M40.8,29.74l-17.43,20.64s0,0-.01-.01c-3.31-4.47-8.21-9.57-10.74-15.37l14.29-16.98c-.43.54-1.97,2.72-1.97,5.7,0,5.05,4.05,9.05,9.06,9.05,3.52,0,5.8-1.99,6.63-2.85.01-.01.02-.02.03-.03.05-.06.1-.11.14-.15Z" />
    <path fill="#34a853" d="M57.72,23.84c0,7-2.71,12.01-2.71,12.01-2.2,4.56-7.11,10.34-7.87,11.33-2.8,3.51-5.64,7.16-7.94,11.26-1.17,2.13-1.91,4.38-2.85,7.33-.46,1.35-1.04,2.23-2.34,2.23-1.19,0-1.75-.52-2.36-2.24-1-3.12-1.57-4.88-2.93-7.47-1.6-2.76-3.39-5.4-5.36-7.9h.01l17.43-20.65s-.09.1-.15.16l14.4-17.14s2.67,4.54,2.67,11.08Z" />
</svg>
