<svg width="130" height="90" viewBox="0 0 130 90" xmlns="http://www.w3.org/2000/svg">
    <path fill="none" stroke="#444" stroke-width="2" d="M1,1h128v88H1V1Z" />
    <rect class="uk-preserve" width="72" height="64" fill="#fff" x="29" y="13" />
    <rect width="73" height="65" fill="none" stroke="#444" x="28.5" y="12.5" />
    <rect width="26" height="2" fill="#444" x="43" y="23" />
    <rect width="18" height="1" fill="#444" x="50" y="28.5" />
    <circle fill="#444" cx="46" cy="29" r="1" />
    <circle fill="#444" cx="46" cy="33" r="1" />
    <rect width="12" height="1" fill="#444" x="50" y="32.5" />
    <rect width="31" height="2" fill="#444" x="43" y="39" />
    <rect width="18" height="1" fill="#444" x="50" y="44.5" />
    <circle fill="#444" cx="46" cy="45" r="1" />
    <circle fill="#444" cx="46" cy="49" r="1" />
    <rect width="12" height="1" fill="#444" x="50" y="48.5" />
    <rect width="31" height="2" fill="#444" x="43" y="55" />
    <rect width="18" height="1" fill="#444" x="50" y="60.5" />
    <circle fill="#444" cx="46" cy="61" r="1" />
    <circle fill="#444" cx="46" cy="65" r="1" />
    <rect width="12" height="1" fill="#444" x="50" y="64.5" />
</svg>
