<svg id="logo" xmlns="http://www.w3.org/2000/svg" width="22" height="22" viewBox="0 0 27 36">
    <title>octopoos-logo</title>
    <g id="form">
        <path d="M7,18.32A12.71,12.71,0,0,1,3.6,19a11.22,11.22,0,0,1,2.53-5.17,7.45,7.45,0,0,0,0,1.24A12.32,12.32,0,0,0,7,18.32Zm-5.77.47A7.61,7.61,0,0,0,3,19a11.75,11.75,0,0,1,2.43-5.25A10.11,10.11,0,0,0,1.23,18.79Zm16.69,15A12.63,12.63,0,0,1,6.64,11.32a6.64,6.64,0,0,0-.38,1.42A9.92,9.92,0,0,0,2.18,16,11.17,11.17,0,0,0,1,19.32a8.37,8.37,0,0,0,1.9.24,12.73,12.73,0,0,0-.15,1.86,14.64,14.64,0,0,0,.47,3.89,7.5,7.5,0,0,1,.4-.69,13.71,13.71,0,0,1-.32-3.19,12.63,12.63,0,0,1,.16-1.87,13.11,13.11,0,0,0,3.72-.71,22.06,22.06,0,0,0,3.84,5.87,19.88,19.88,0,0,1-4.69,1.17,5.48,5.48,0,0,0,0,.57,19.52,19.52,0,0,0,4.16-1,24.51,24.51,0,0,1-2.94,3.14,6.06,6.06,0,0,1,.13.64,25.17,25.17,0,0,0,3.73-4.08,20.58,20.58,0,0,0,2.15,1.94,25.15,25.15,0,0,0,3.87,2.42A15.94,15.94,0,0,1,11.59,31a2.33,2.33,0,0,0,.3.53,15.51,15.51,0,0,0,3.7-.67,15.16,15.16,0,0,0,1.82-.68,25.56,25.56,0,0,1-2.29,3,5.93,5.93,0,0,0,.73,0,24.92,24.92,0,0,0,2.41-3.35,21.66,21.66,0,0,0,2.57,1q.23-.23.42-.45a18.81,18.81,0,0,1-2.47-.89,15.71,15.71,0,0,0,3.93-3.06,6.61,6.61,0,0,0-.05-.76,15.07,15.07,0,0,1-3.78,3.14c.3-.56.59-1.12.86-1.71a29.06,29.06,0,0,0,1.46-3.8,3.45,3.45,0,0,1-.41-.57,27.86,27.86,0,0,1-1.55,4.14c-.37.79-.77,1.55-1.2,2.29a22.93,22.93,0,0,1-4-2.5,21.46,21.46,0,0,1-2-1.75c.36-.15.71-.32,1.06-.49a21.21,21.21,0,0,0,6.41-4.73,3.88,3.88,0,0,0-.26-.31.53.53,0,0,1-.23,0A20.78,20.78,0,0,1,12.84,24l-.7.32a24.68,24.68,0,0,0,3.68-8.46l-.46-.46a24.23,24.23,0,0,1-3.92,9,21,21,0,0,1-3.7-5.64,20.83,20.83,0,0,0,6.36-3.92,4,4,0,0,1-.44-.34,20.24,20.24,0,0,1-6.14,3.73A11.87,11.87,0,0,1,6.71,15a7.92,7.92,0,0,1,0-1.83l.07-.07a13.9,13.9,0,0,1,4.9-.93H12a5.66,5.66,0,0,1-.21-.56h-.12A14.22,14.22,0,0,0,8,12.15a11,11,0,0,1,3.78-1.7v0c-.08-.16-.15-.33-.22-.49A11.31,11.31,0,0,0,7,12.24c.19-.57.31-1.21.65-1.45h0l.25-.12.65-.29a12.63,12.63,0,0,1,9.4,23.45ZM14.24,12c-.69-1-1.56-1.63-2-1.37s-.14,1.28.54,2.29,1.57,1.63,2,1.37S14.93,13,14.24,12Zm4,4.58c-.72-.79-1.54-1.21-1.85-.94s0,1.12.75,1.91,1.54,1.21,1.85.94S18.93,17.39,18.21,16.6Zm3.87,5.28c-.43-.79-1-1.29-1.33-1.13s-.2.93.24,1.72,1,1.29,1.34,1.13S22.52,22.67,22.08,21.88ZM3,25.92a11.65,11.65,0,0,1-1.38-.25,4.32,4.32,0,0,0,.37.66c.26.05.53.1.81.13A3.72,3.72,0,0,1,3,25.92Zm3.27-.72c.24.05.48-.34.55-.89s-.07-1-.31-1.08-.48.35-.55.89S6,25.15,6.25,25.2Zm1.12,3.26c-.26-.81-.77-1.4-1.13-1.32s-.46.79-.2,1.6.77,1.4,1.14,1.33S7.63,29.27,7.37,28.46ZM10.53,31a15.09,15.09,0,0,1-2.34-.25q.27.33.6.66c.54.07,1.09.12,1.65.14a1.25,1.25,0,0,1,0-.21C10.48,31.28,10.5,31.16,10.53,31Z" style="fill:#fff;opacity:0.2"/><path d="M23.09,9S22,7,21.82,9.2c-.23.05-.45.55-.5,1.17a1.72,1.72,0,0,0,.21,1.2c0,.16-.06.31-.1.46l-.65-.5c-6.19-4.47-7.19-7-8-10.48s-2.1,2.37-2.1,2.37a9.88,9.88,0,0,0-.15,2.22c-.34.26-.4,1.23-.12,2.32a3,3,0,0,0,1.14,1.93,4.41,4.41,0,0,0,.24.54c-.25.5.08,1.65.85,2.78S14.5,15.2,15,15l.84.85A3.12,3.12,0,0,0,17,18.12c.85.94,1.82,1.47,2.27,1.28.37.43.73.87,1.08,1.33a2.93,2.93,0,0,0,.42,1.91,3,3,0,0,0,1.55,1.49c1.36,3.8-.52,7.17-4.86,8.8-2.36.89-5.32-.22-5.91-2.14s-1,.12-1,.57a7.66,7.66,0,0,0,0,1.34,8.28,8.28,0,0,1-2.7-2.54,3.61,3.61,0,0,0-.18-1.82,3,3,0,0,0-1.13-1.71,10.19,10.19,0,0,1-.08-1.07c.26-.06.57-.43.65-1.27A1.59,1.59,0,0,0,6.76,23a3.32,3.32,0,0,1,.25-.5c1.16-1.81-.59-.74-.59-.74C3,24.25,2.65,27,2.65,27S.55,26.06.94,20a11.87,11.87,0,0,1,5.7-8.71l0,0a2.41,2.41,0,0,1-.4-.43c-.32-.47-.4-.95-.18-1.07a1.23,1.23,0,0,1,1.27.46,1.78,1.78,0,0,1,.32.53l.25-.12h0A5,5,0,0,0,7.4,10a1.88,1.88,0,0,0-1.55-.61c-.18-.19-.38-.38-.59-.57l0,0c.14-.18-.12-.64-.6-1s-1-.44-1.16-.26c0,0,0,0,0,0l-.06,0C1.58,6.6,3,8.43,3,8.43c2.9,5.36-.31,3-2.52,11A12.89,12.89,0,0,0,5.66,33.31c6.16,4.32,15.52,3.77,19.74-4.1A12.91,12.91,0,0,0,25,16,10.5,10.5,0,0,0,23.09,9Zm-11.42.38c-.34.09-.82-.59-1.06-1.52s-.16-1.75.18-1.84.82.59,1.06,1.52S12,9.25,11.67,9.34Zm3.12,5c-.39.26-1.27-.35-2-1.37s-.93-2-.54-2.29,1.26.35,2,1.37S15.17,14.06,14.79,14.31ZM19,18.51c-.31.27-1.13-.15-1.85-.94s-1.05-1.64-.75-1.91,1.13.15,1.85.94S19.26,18.25,19,18.51Zm2.61-8.08c0-.53.23-.94.44-.92s.37.47.33,1-.23.94-.44.92S21.54,11,21.57,10.43Zm.76,13.17c-.31.16-.9-.35-1.34-1.13s-.55-1.56-.24-1.72.9.34,1.33,1.13S22.63,23.44,22.33,23.6ZM3.74,7.72c.12-.15.52,0,.87.2s.55.59.42.73-.53.06-.88-.2S3.61,7.87,3.74,7.72Zm2.2,16.4c.07-.54.32-.94.55-.89s.38.54.31,1.08-.31.94-.55.89S5.88,24.66,5.94,24.12Zm1.24,5.95c-.37.07-.88-.52-1.14-1.33s-.17-1.53.2-1.6.87.51,1.13,1.32S7.54,30,7.18,30.07Z" style="fill:#fff"/>
    </g>
</svg>