<svg version="1.1" viewBox="0 0 32 32" xmlns="http://www.w3.org/2000/svg">
 <path d="m28.681 7.159c-.694-.947-1.662-2.053-2.724-3.116s-2.169-2.03-3.116-2.724c-1.612-1.182-2.393-1.319-2.841-1.319h-15.5c-1.378 0-2.5 1.121-2.5 2.5v27c0 1.378 1.121 2.5 2.5 2.5h23c1.378 0 2.5-1.122 2.5-2.5v-19.5c0-.448-.137-1.23-1.319-2.841zm-4.138-1.702c.959.959 1.712 1.825 2.268 2.543h-4.811v-4.811c.718.556 1.584 1.309 2.543 2.268zm3.457 24.043c0 .271-.229.5-.5.5h-23c-.271 0-.5-.229-.5-.5v-27c0-.271.229-.5.5-.5h15.5v7c0 .552.448 1 1 1h7v19.5z"/>
 <text transform="scale(.99428 1.0058)" x="9.5193081" y="16.447708" style="fill:#000000;font-family:sans-serif;font-size:9.442px;letter-spacing:0px;line-height:1.25;stroke-width:.23605;word-spacing:0px" xml:space="preserve"><tspan x="9.5193081" y="16.447708" style="stroke-width:.23605">1</tspan></text>
 <text transform="scale(.95623 1.0458)" x="18.054241" y="25.38534" style="fill:#000000;font-family:sans-serif;font-size:12.734px;letter-spacing:0px;line-height:1.25;stroke-width:.31835;word-spacing:0px" xml:space="preserve"><tspan x="18.054241" y="25.38534" style="stroke-width:.31835">o</tspan></text>
 <path d="m19.39 14.508c-6.7797 7.322-6.5085 7.322-6.5085 7.322" style="fill:none;stroke-width:1px;stroke:#000"/>
</svg>
