<svg version="1.1" xmlns="http://www.w3.org/2000/svg" xmlns:xlink="http://www.w3.org/1999/xlink"
viewBox="0 0 32 32" style="fill:#00ff00;fill-opacity:.6;">
 <path id="path4" d="m16 0c-8.84 0-16 7.16-16 16 0 8.8 7.16 16 16 16 8.8 0 16-7.2 16-16 0-8.84-7.2-16-16-16zm0 29c-7.18 0-13-5.8-13-13 0-7.18 5.82-13 13-13s13 5.82 13 13-5.82 13-13 13z"/>
 <path id="path4-8" d="m26.4 13.2h-7.55v-7.04c0-0.353-0.308-0.64-0.686-0.64h-4.12c-0.379 0-0.686 0.287-0.686 0.64v7.04h-7.55c-0.379 0-0.686 0.287-0.686 0.64v3.84c0 0.353 0.308 0.64 0.686 0.64h7.55v7.04c0 0.353 0.308 0.64 0.686 0.64h4.12c0.379 0 0.686-0.287 0.686-0.64v-7.04h7.55c0.379 0 0.686-0.287 0.686-0.64v-3.84c0-0.353-0.308-0.64-0.686-0.64z"/>
</svg>
