<svg version="1.1" viewBox="0 0 32 32" xmlns="http://www.w3.org/2000/svg">
 <path d="m28.681 7.159c-.694-.947-1.662-2.053-2.724-3.116s-2.169-2.03-3.116-2.724c-1.612-1.182-2.393-1.319-2.841-1.319h-15.5c-1.378 0-2.5 1.121-2.5 2.5v27c0 1.378 1.121 2.5 2.5 2.5h23c1.378 0 2.5-1.122 2.5-2.5v-19.5c0-.448-.137-1.23-1.319-2.841zm-4.138-1.702c.959.959 1.712 1.825 2.268 2.543h-4.811v-4.811c.718.556 1.584 1.309 2.543 2.268zm3.457 24.043c0 .271-.229.5-.5.5h-23c-.271 0-.5-.229-.5-.5v-27c0-.271.229-.5.5-.5h15.5v7c0 .552.448 1 1 1h7v19.5z"/>
 <text transform="scale(1.0158 .98445)" x="6.3357491" y="28.382959" fill="#000000" font-family="sans-serif" font-size="28.577px" letter-spacing="0px" stroke-width=".71443" word-spacing="0px" style="line-height:1.25" xml:space="preserve"><tspan x="6.3357491" y="28.382959" stroke-width=".71443">α</tspan></text>
</svg>
